# xmcd
#
# Track frame offsets:
#	150
#	22758
#	40778
#	58708
#	79436
#	100430
#	119465
#	134838
#	154239
#	168333
#	191929
#	205237
#	224644
#
# Disc length: 3197 seconds
#
# Revision: 1
# Processed by: cddbd v1.5.2PL0 Copyright (c) Steve Scherf et al.
# Submitted via: audiograbber 1.83.01
#
DISCID=c60c7b0d
DTITLE=Julian Sas - Bound To Roll
DYEAR=2012
DGENRE=Blues 
TTITLE0=Life On The Line
TTITLE1=Mercy
TTITLE2=Bound To Roll
TTITLE3=How Could  I`ve Been So Blind
TTITLE4=Shadow Play
TTITLE5=Swamplands
TTITLE6=30 Days In The Hole
TTITLE7=The Blues Won`t Stay
TTITLE8=Tear It Up
TTITLE9=Burning Bridges
TTITLE10=Ain`t Backing Down
TTITLE11=Highway 61 Revisited
TTITLE12=Life On The Line
EXTD=
EXTT0=
EXTT1=
EXTT2=
EXTT3=
EXTT4=
EXTT5=
EXTT6=
EXTT7=
EXTT8=
EXTT9=
EXTT10=
EXTT11=
EXTT12=
PLAYORDER=
